<svg xmlns="http://www.w3.org/2000/svg" width="414" height="63" viewBox="0 0 414 63">
  <g transform="translate(-120 -36)">
    <text id="TutorialWorld.com" transform="translate(120 87)" font-size="47" font-family="SegoeUI-Bold, Segoe UI" font-weight="700"><tspan x="0" y="0">TutorialWorld.com</tspan></text>
    <path id="TutorialWorld.com_-_Outline" data-name="TutorialWorld.com - Outline" d="M159.663-35.291h8.252V.5h-8.252Zm7.252,1h-6.252V-.5h6.252Zm99.508-1h8.252V.5h-8.252Zm7.252,1h-6.252V-.5h6.252Zm21.848-1h8.252V.5h-8.252V-1.863a8.669,8.669,0,0,1-6.867,2.937,9.427,9.427,0,0,1-7.47-3.283c-1.862-2.157-2.807-5.189-2.807-9.013,0-3.989,1.036-7.24,3.078-9.663a10.177,10.177,0,0,1,8.139-3.689,7.487,7.487,0,0,1,5.926,2.3Zm7.252,1h-6.252v13.976h-.888l-.142-.259c-1.109-2.018-3.037-3-5.9-3a9.1,9.1,0,0,0-7.375,3.334,13.591,13.591,0,0,0-2.843,9.018c0,3.577.862,6.389,2.563,8.36A8.361,8.361,0,0,0,288.655.074a7.6,7.6,0,0,0,6.856-3.582l.148-.227h.863V-.5h6.252Zm-177.586-.885a4.868,4.868,0,0,1,3.35,1.159,3.9,3.9,0,0,1,1.326,3.035,4,4,0,0,1-1.322,3.078,4.81,4.81,0,0,1-3.355,1.186,4.737,4.737,0,0,1-3.347-1.224,4.009,4.009,0,0,1-1.33-3.04,3.882,3.882,0,0,1,1.34-3.037A4.879,4.879,0,0,1,125.188-35.176Zm0,7.458a3.794,3.794,0,0,0,2.681-.925,2.994,2.994,0,0,0,1-2.338,2.9,2.9,0,0,0-.992-2.289,3.852,3.852,0,0,0-2.685-.906,3.861,3.861,0,0,0-2.676.908,2.884,2.884,0,0,0-1,2.287,3.006,3.006,0,0,0,1.011,2.308A3.722,3.722,0,0,0,125.188-27.718ZM.211-33.409H27.374v7.036H17.987V.5H9.552V-26.374H.211Zm26.162,1H1.211v5.036h9.34V-.5h6.436V-27.374h9.386Zm143.858-1h9.155l4.72,22.313q.053.247.1.524.078-.319.167-.644l6.067-22.192h8.715l5.486,22.482q.028.112.054.234.035-.178.072-.355l4.626-22.36h8.538L208.97.5h-8.988l-5.559-21.488q-.065-.247-.123-.5-.061.266-.126.509L188.477.5h-9.33l-.1-.373Zm8.344,1h-7.047L179.917-.5h7.79l5.5-20.742a22.07,22.07,0,0,0,.582-3.612l.042-.454h1.026l.021.478a17.186,17.186,0,0,0,.512,3.59L200.757-.5H208.2l8.433-31.909h-6.425l-4.461,21.564a23.307,23.307,0,0,0-.472,3.6l-.024.475h-1.02l-.045-.451a26.751,26.751,0,0,0-.516-3.464l-5.3-21.719H191.2l-5.866,21.457a17.806,17.806,0,0,0-.648,3.75l-.025.474h-1.084l-.027-.471a25.818,25.818,0,0,0-.426-3.689ZM65.217-31.3V-24H70.5v6.347H65.217v9c0,2.843,1.378,3.172,2.415,3.172a4.445,4.445,0,0,0,2.124-.6l.74-.4V.026l-.266.141a11.07,11.07,0,0,1-5.076.907c-2.684,0-4.74-.721-6.109-2.144S56.988-4.614,56.988-7.39V-17.653h-3.81V-24h3.81v-4.949ZM69.5-23H64.217v-6.974l-6.229,1.78V-23h-3.81v4.347h3.81V-7.39c0,2.508.6,4.4,1.776,5.626S62.751.074,65.153.074A11.185,11.185,0,0,0,69.5-.589V-4.857a5.035,5.035,0,0,1-1.864.377c-1.558,0-3.415-.724-3.415-4.172v-10H69.5Zm15.922-1.574c4.02,0,7.226,1.157,9.531,3.438a12.238,12.238,0,0,1,3.476,9.065c0,4.021-1.2,7.253-3.579,9.6S89.191,1.074,85.1,1.074c-4.034,0-7.259-1.156-9.587-3.436A12.471,12.471,0,0,1,72-11.658c0-4.011,1.226-7.2,3.645-9.486S81.341-24.574,85.417-24.574ZM85.1.074c3.823,0,6.866-1.094,9.046-3.252s3.283-5.149,3.283-8.893a11.276,11.276,0,0,0-3.179-8.354c-2.111-2.089-5.081-3.149-8.828-3.149-3.812,0-6.87,1.062-9.089,3.157S73-15.383,73-11.658a11.511,11.511,0,0,0,3.212,8.581C78.343-.986,81.333.074,85.1.074Zm59.278-24.647c3.472,0,6.127.893,7.892,2.653s2.66,4.411,2.66,7.876V.5h-7.862V-1.919a8.093,8.093,0,0,1-6.591,2.993,7.833,7.833,0,0,1-5.733-2.084,7.46,7.46,0,0,1-2.111-5.531,7.693,7.693,0,0,1,2.176-5.751,10.928,10.928,0,0,1,6.36-2.639l5.929-.789c-.144-1.989-1.318-2.92-3.662-2.92a13.829,13.829,0,0,0-7.711,2.419l-.776.512v-6.7l.271-.14a18.532,18.532,0,0,1,4.261-1.42A22.373,22.373,0,0,1,144.374-24.574ZM153.925-.5V-14.045c0-6.412-3.124-9.529-9.552-9.529a21.381,21.381,0,0,0-4.674.584,18.764,18.764,0,0,0-3.753,1.2v4.25a14.609,14.609,0,0,1,7.486-2.1c3.06,0,4.677,1.506,4.677,4.355v.438l-6.814.907c-5.16.672-7.667,3.092-7.667,7.4a6.415,6.415,0,0,0,1.814,4.819,6.875,6.875,0,0,0,5.03,1.795,7.132,7.132,0,0,0,6.571-3.7l.146-.243h.875V-.5Zm77.082-24.074c4.02,0,7.226,1.157,9.531,3.438a12.238,12.238,0,0,1,3.476,9.065c0,4.022-1.2,7.253-3.579,9.6s-5.654,3.541-9.749,3.541c-4.034,0-7.259-1.156-9.587-3.436a12.471,12.471,0,0,1-3.512-9.3c0-4.011,1.226-7.2,3.645-9.486S226.931-24.574,231.007-24.574ZM230.686.074c3.823,0,6.866-1.094,9.046-3.252s3.283-5.148,3.283-8.893a11.276,11.276,0,0,0-3.179-8.354c-2.111-2.089-5.081-3.149-8.828-3.149-3.812,0-6.87,1.062-9.089,3.157s-3.332,5.034-3.332,8.759A11.511,11.511,0,0,0,221.8-3.077C223.932-.986,226.923.074,230.686.074ZM333.911-24.574c2.887,0,4.937.383,6.268,1.171l.245.145v7.433l-.8-.6a7.814,7.814,0,0,0-4.772-1.6,6.232,6.232,0,0,0-4.592,1.678,6.359,6.359,0,0,0-1.678,4.684,6.248,6.248,0,0,0,1.6,4.55,5.883,5.883,0,0,0,4.439,1.629A9.124,9.124,0,0,0,339.65-7.1l.774-.507V-.561l-.249.144a14.874,14.874,0,0,1-7.342,1.49,12.527,12.527,0,0,1-9.116-3.424,11.866,11.866,0,0,1-3.5-8.826c0-4.116,1.26-7.414,3.745-9.8A13.812,13.812,0,0,1,333.911-24.574Zm5.513,1.9a12.845,12.845,0,0,0-5.513-.9,12.85,12.85,0,0,0-9.258,3.314c-2.281,2.194-3.438,5.25-3.438,9.083a10.9,10.9,0,0,0,3.2,8.111A11.563,11.563,0,0,0,332.832.074a14.53,14.53,0,0,0,6.591-1.218V-5.791a9.8,9.8,0,0,1-4.8,1.311,6.918,6.918,0,0,1-5.153-1.928,7.205,7.205,0,0,1-1.887-5.25,7.316,7.316,0,0,1,1.971-5.391,7.192,7.192,0,0,1,5.3-1.971,8.737,8.737,0,0,1,4.572,1.26Zm16.771-1.9c4.02,0,7.226,1.157,9.531,3.438a12.238,12.238,0,0,1,3.476,9.065c0,4.021-1.2,7.253-3.579,9.6s-5.654,3.541-9.749,3.541c-4.034,0-7.259-1.156-9.587-3.436a12.471,12.471,0,0,1-3.512-9.3c0-4.011,1.226-7.2,3.645-9.486S352.119-24.574,356.195-24.574ZM355.874.074c3.823,0,6.866-1.094,9.046-3.252s3.283-5.149,3.283-8.893a11.276,11.276,0,0,0-3.179-8.354c-2.111-2.089-5.081-3.149-8.828-3.149-3.812,0-6.87,1.062-9.089,3.157s-3.332,5.034-3.332,8.759a11.511,11.511,0,0,0,3.212,8.581C349.12-.986,352.111.074,355.874.074Zm32.473-24.647a7.221,7.221,0,0,1,6.889,3.872,9.141,9.141,0,0,1,7.821-3.872,7.465,7.465,0,0,1,6.137,2.549c1.346,1.66,2.028,4.152,2.028,7.406V.5h-8.229V-13.4a6.028,6.028,0,0,0-.844-3.542,2.783,2.783,0,0,0-2.42-1.076,2.959,2.959,0,0,0-2.511,1.333,5.861,5.861,0,0,0-1.028,3.537V.5h-8.252V-13.54a5.811,5.811,0,0,0-.825-3.437,2.735,2.735,0,0,0-2.37-1.043,3.041,3.041,0,0,0-2.573,1.271,6.014,6.014,0,0,0-1.012,3.691V.5h-8.252V-24h8.252v2.744a9.509,9.509,0,0,1,2.5-2.068A9.205,9.205,0,0,1,388.347-24.574Zm6.732,5.977-.377-.9a6.258,6.258,0,0,0-6.355-4.076,8.218,8.218,0,0,0-4.189,1.114,8.216,8.216,0,0,0-2.978,2.888l-.145.244h-.876V-23h-6.252V-.5h6.252V-13.058a6.972,6.972,0,0,1,1.215-4.3,4.034,4.034,0,0,1,3.37-1.667,3.716,3.716,0,0,1,3.173,1.447,6.738,6.738,0,0,1,1.022,4.033V-.5h6.252V-13.15a6.834,6.834,0,0,1,1.221-4.128,3.948,3.948,0,0,1,3.318-1.742,3.765,3.765,0,0,1,3.226,1.483,6.955,6.955,0,0,1,1.038,4.135V-.5h6.229V-14.619c0-6.026-2.344-8.955-7.165-8.955a8.157,8.157,0,0,0-7.468,4.145Zm-278.91-5.817a5.092,5.092,0,0,1,1.987.316l.3.13v7.849l-.739-.4a5.828,5.828,0,0,0-2.813-.651,3.89,3.89,0,0,0-3.3,1.537,7.115,7.115,0,0,0-1.228,4.411V.5h-8.252V-24h8.252v2.82A6.369,6.369,0,0,1,116.169-24.413Zm1.29,1.133a5.22,5.22,0,0,0-1.29-.133c-2.775,0-4.648,1.453-5.726,4.443l-.119.33h-.943V-23h-6.252V-.5h6.252V-11.222a8.072,8.072,0,0,1,1.435-5.021,4.893,4.893,0,0,1,4.091-1.928,7.207,7.207,0,0,1,2.552.435Zm144.3-1.133a5.092,5.092,0,0,1,1.987.316l.3.13v7.849l-.739-.4a5.828,5.828,0,0,0-2.813-.651,3.89,3.89,0,0,0-3.3,1.537,7.115,7.115,0,0,0-1.228,4.411V.5h-8.252V-24h8.252v2.82A6.369,6.369,0,0,1,261.759-24.413Zm1.29,1.133a5.22,5.22,0,0,0-1.29-.133c-2.775,0-4.648,1.453-5.726,4.443l-.119.33h-.943V-23h-6.252V-.5h6.252V-11.222a8.072,8.072,0,0,1,1.435-5.021,4.893,4.893,0,0,1,4.091-1.928,7.207,7.207,0,0,1,2.552.435ZM26.488-24h8.229V-9.96A5.5,5.5,0,0,0,35.6-6.536,3.052,3.052,0,0,0,38.165-5.48a3.4,3.4,0,0,0,2.741-1.191,5.052,5.052,0,0,0,1.05-3.381V-24h8.229V.5H41.956V-2.2a8.445,8.445,0,0,1-6.8,3.275c-2.867,0-5.058-.893-6.513-2.654-1.431-1.733-2.157-4.336-2.157-7.737Zm7.229,1H27.488V-9.317C27.488-3,30,.074,35.158.074a7.669,7.669,0,0,0,6.763-3.925l.148-.229h.887V-.5h6.229V-23H42.956v12.948A6.011,6.011,0,0,1,41.665-6.02a4.4,4.4,0,0,1-3.5,1.54,4.037,4.037,0,0,1-3.352-1.434A6.435,6.435,0,0,1,33.717-9.96Zm87.3-1h8.252V.5h-8.252Zm7.252,1h-6.252V-.5h6.252ZM85.279-19.02a5.232,5.232,0,0,1,4.332,1.835,8.322,8.322,0,0,1,1.423,5.252,9.159,9.159,0,0,1-1.4,5.515A5.063,5.063,0,0,1,85.325-4.48,5.445,5.445,0,0,1,80.84-6.359a8.475,8.475,0,0,1-1.476-5.391A8.3,8.3,0,0,1,80.9-17.067,5.335,5.335,0,0,1,85.279-19.02Zm.046,13.54a4.065,4.065,0,0,0,3.507-1.538,8.231,8.231,0,0,0,1.2-4.915,7.391,7.391,0,0,0-1.2-4.628,4.232,4.232,0,0,0-3.551-1.458,4.326,4.326,0,0,0-3.6,1.581,7.354,7.354,0,0,0-1.312,4.689,7.544,7.544,0,0,0,1.255,4.764A4.442,4.442,0,0,0,85.325-5.48ZM230.869-19.02a5.232,5.232,0,0,1,4.332,1.835,8.322,8.322,0,0,1,1.423,5.252,9.159,9.159,0,0,1-1.4,5.515,5.063,5.063,0,0,1-4.307,1.939,5.445,5.445,0,0,1-4.486-1.879,8.476,8.476,0,0,1-1.476-5.391,8.3,8.3,0,0,1,1.533-5.317A5.335,5.335,0,0,1,230.869-19.02Zm.046,13.54a4.065,4.065,0,0,0,3.507-1.538,8.23,8.23,0,0,0,1.2-4.915,7.391,7.391,0,0,0-1.2-4.628,4.232,4.232,0,0,0-3.551-1.458,4.326,4.326,0,0,0-3.6,1.581,7.354,7.354,0,0,0-1.312,4.689,7.544,7.544,0,0,0,1.255,4.764A4.442,4.442,0,0,0,230.915-5.48Zm60.448-13.54a4.9,4.9,0,0,1,3.841,1.685,6.07,6.07,0,0,1,1.455,4.14v1.767a7.88,7.88,0,0,1-1.5,4.99A4.858,4.858,0,0,1,291.18-4.48a4.839,4.839,0,0,1-4.02-1.868,8.117,8.117,0,0,1-1.414-5.081,9.31,9.31,0,0,1,1.447-5.489A4.862,4.862,0,0,1,291.363-19.02ZM291.18-5.48a3.853,3.853,0,0,0,3.2-1.576,6.918,6.918,0,0,0,1.282-4.373V-13.2a5.034,5.034,0,0,0-1.207-3.48,3.884,3.884,0,0,0-3.09-1.345,3.863,3.863,0,0,0-3.357,1.684,8.356,8.356,0,0,0-1.261,4.907,7.17,7.17,0,0,0,1.2,4.466A3.836,3.836,0,0,0,291.18-5.48Zm64.877-13.54a5.232,5.232,0,0,1,4.332,1.835,8.322,8.322,0,0,1,1.423,5.252,9.159,9.159,0,0,1-1.4,5.515A5.063,5.063,0,0,1,356.1-4.48a5.445,5.445,0,0,1-4.486-1.879,8.475,8.475,0,0,1-1.476-5.391,8.3,8.3,0,0,1,1.533-5.317A5.335,5.335,0,0,1,356.057-19.02ZM356.1-5.48a4.065,4.065,0,0,0,3.507-1.538,8.23,8.23,0,0,0,1.2-4.915,7.39,7.39,0,0,0-1.2-4.628,4.232,4.232,0,0,0-3.551-1.458,4.326,4.326,0,0,0-3.6,1.581,7.354,7.354,0,0,0-1.312,4.689A7.544,7.544,0,0,0,352.4-6.986,4.442,4.442,0,0,0,356.1-5.48ZM148.109-11.7v2.152a5.6,5.6,0,0,1-1.415,3.905A4.793,4.793,0,0,1,143-4.067a3.8,3.8,0,0,1-2.668-.924,3.129,3.129,0,0,1-1.022-2.4c0-1.446.689-3.26,3.97-3.686ZM143-5.067a3.782,3.782,0,0,0,2.958-1.248,4.576,4.576,0,0,0,1.155-3.232v-1.015l-3.7.478c-2.777.361-3.1,1.71-3.1,2.694a2.138,2.138,0,0,0,.7,1.663A2.8,2.8,0,0,0,143-5.067ZM312.729-7.5A4.867,4.867,0,0,1,316.1-6.3a3.973,3.973,0,0,1,1.347,3.068,3.993,3.993,0,0,1-1.373,3.117,5.052,5.052,0,0,1-3.464,1.193A4.733,4.733,0,0,1,309.292-.16a4.039,4.039,0,0,1-1.354-3.075,3.9,3.9,0,0,1,1.4-3.087A5.039,5.039,0,0,1,312.729-7.5ZM312.614.074a4.033,4.033,0,0,0,2.8-.941,2.993,2.993,0,0,0,1.036-2.368,2.972,2.972,0,0,0-1.017-2.325,3.849,3.849,0,0,0-2.706-.938,4.015,4.015,0,0,0-2.738.935,2.907,2.907,0,0,0-1.054,2.329A3.036,3.036,0,0,0,309.97-.9,3.716,3.716,0,0,0,312.614.074Z" transform="translate(120 87)"/>
  </g>
</svg>
